<?xml version="1.0" encoding="UTF-8"?>
<svg id="Layer_1" data-name="Layer 1" xmlns="http://www.w3.org/2000/svg" viewBox="0 0 141.25 96.23">
  <defs>
    <style>
      .cls-1 {
        fill: #96cc5a;
      }

      .cls-1, .cls-2 {
        stroke-width: 0px;
      }

      .cls-2 {
        fill: #e96f0c;
      }
    </style>
  </defs>
  <path class="cls-1" d="m16.97,50.71V1.37c0-.51.37-.88.88-.88h8.54c.51,0,.88.36.88.88v49.35c0,.51-.37.88-.88.88h-8.54c-.51,0-.88-.36-.88-.88Z"/>
  <path class="cls-1" d="m32.81,29.2v-6.83c0-.55.45-1,1-1h12.03c8.25,0,13.94,4.82,13.94,12.19v25.04c0,.48-.39.88-.88.88h-8.54c-.48,0-.88-.39-.88-.88v-1.61c0-.29-.22-.44-.44-.15-1.68,2.12-4.09,3.14-7.45,3.21-4.16,0-10.44-1.39-10.44-11.24s6.2-11.9,14.6-11.9h3.36c.2,0,.37-.16.37-.37v-1.83c0-2.7-1.61-4.53-3.72-4.53h-11.95c-.56,0-1.01-.45-1.01-1.01Zm16.68,18.75v-3.43c0-.2-.16-.37-.37-.37h-2.99c-2.63,0-4.38,1.53-4.38,4.23,0,2.56,1.46,3.72,3.29,3.72,2.12,0,4.45-1.46,4.45-4.16Z"/>
  <path class="cls-1" d="m82.37.29c.51-.01,1.01.07,1,.7v8.88c0,.64-.34.43-1.05.45-1.47-.02-4.62-.25-5.87.19-2.19.51-3.8,3.07-3.8,5.99v42.1c0,.48-.39.88-.88.88h-8.54c-.48,0-.88-.39-.88-.88V9.42C62.37,4.22,66.59,0,71.79,0h-.17"/>
  <path class="cls-1" d="m91.15,13.9h7.41c.44,0,.76.32.76.77v30.59c0,9.02-3.29,15.68-17.93,14.72-.51-.06-.76-.38-.76-.83v-6.27c0-.51.32-.77.82-.7,7.79.32,8.93-2.82,8.93-7.87,0-.26-.19-.26-.38,0-1.71,2.24-4.24,2.75-5.89,2.75-5.96,0-8.68-4.22-8.68-10.75v-12.16c0-6.85,2.91-10.75,8.68-10.75,1.84,0,4.24.51,5.89,2.88.19.26.38.13.38-.13v-1.47c0-.45.32-.77.76-.77Zm-.76,21.69v-10.81c0-2.18-1.27-3.65-3.04-3.65s-2.98,1.47-2.98,3.65v10.81c0,2.18,1.2,3.65,2.98,3.65s3.04-1.47,3.04-3.65Z"/>
  <path class="cls-1" d="m129.38,42.46h-16.06c-.22,0-.36.11-.36.28v2.03c0,1.92,1.46,3.27,3.5,3.27,1.9,0,3.07-1.18,3.43-2.48.15-.45.51-.68,1.02-.62l8.32.68c.51.06.88.28.8.73-.58,5.24-5.11,8.45-13.58,8.45s-13.8-3.55-13.8-9.41v-10.98c0-5.63,5.11-9.46,13.8-9.46s13.8,3.83,13.8,9.46v7.38c0,.39-.36.68-.88.68Zm-16.42-7.49v1.97c0,.17.15.28.36.28h6.28c.22,0,.36-.11.36-.28v-1.97c0-1.92-1.46-3.21-3.5-3.21s-3.5,1.3-3.5,3.21Z"/>
  <path class="cls-2" d="m25.44,63.96h-11.5c-.22,0-.36.15-.36.37v17.37c0,2.99,1.24,3.72,3.21,3.65h.51c.51,0,.88.37.88.88v7.15c0,.51-.37.88-.88.88h-2.92c-6.35,0-10.73-1.39-10.73-8.61v-21.32c0-.22-.15-.37-.37-.37H.88c-.51,0-.88-.36-.88-.88v-5.47c0-.51.37-.88.88-.88h2.41c.22,0,.37-.15.37-.37v-8.1c0-.51.36-.88.88-.88h8.18c.51,0,.88.37.88.88v8.1c0,.22.15.37.36.37h11.5c.51,0,.88.37.88.88v5.47c0,.51-.36.88-.88.88Z"/>
  <path class="cls-2" d="m16.92,78.9v-6.98c0-3.6,3.35-6.04,9.11-6.04s9.11,2.45,9.11,6.04v6.98c0,3.78-3.36,6.04-9.11,6.04s-9.11-2.27-9.11-6.04Zm11.46-.4v-6.22c0-1.22-.96-2.05-2.35-2.05s-2.35.83-2.35,2.05v6.22c0,1.22.96,2.09,2.35,2.09s2.35-.86,2.35-2.09Z"/>
  <path class="cls-2" d="m52.07,64.88h6.99c.42,0,.72.37.72.88v27.63c0,.51-.3.88-.72.88h-6.99c-.42,0-.72-.36-.72-.88v-1.24c0-.29-.18-.44-.36-.15-1.32,2.19-3.23,2.77-5.38,2.77-4.36,0-8.25-2.99-8.25-10.88v-18.14c0-.51.3-.88.72-.88h6.99c.42,0,.72.37.72.88v15.88c0,2.85.96,4.38,2.69,4.38s2.87-1.75,2.87-4.6v-15.66c0-.51.3-.88.72-.88Z"/>
  <path class="cls-2" d="m62.55,85.69v-11.16c0-5.75,4.1-9.66,10.91-9.66s10.91,3.91,10.91,9.32v1.04c0,.4-.29.69-.69.69l-6.75.29c-.46,0-.69-.29-.69-.69v-.69c0-1.67-1.15-2.99-2.77-2.99s-2.77,1.32-2.77,3.33v9.89c0,1.96,1.1,3.34,2.77,3.34s2.77-1.38,2.77-2.99v-.75c0-.4.29-.69.69-.69l6.75.06c.4,0,.69.29.69.69v1.32c0,5.64-4.04,9.32-10.91,9.32s-10.91-3.68-10.91-9.66Z"/>
  <path class="cls-2" d="m109.19,74.8v20.25c0,.41-.28.71-.68.71h-6.58c-.39,0-.68-.29-.68-.71v-1.3c0-.24-.17-.35-.34-.12-1.29,1.71-3.15,2.54-5.74,2.6-3.21,0-8.04-1.12-8.04-9.09s4.78-9.62,11.25-9.62h2.59c.17,0,.28-.12.28-.3v-1.48c0-2.18-1.24-3.66-2.87-3.66-1.29,0-2.19.89-2.42,2.36-.06.47-.34.71-.73.71l-6.75-.06c-.39,0-.68-.24-.68-.71.39-5.79,4.67-9.45,10.63-9.45,6.36,0,10.74,3.9,10.74,9.86Zm-7.93,11.63v-2.77c0-.18-.11-.3-.28-.3h-2.31c-2.03,0-3.38,1.24-3.38,3.42,0,2.07,1.13,3.01,2.53,3.01,1.63,0,3.43-1.18,3.43-3.37Z"/>
  <path class="cls-2" d="m141.25,69.73v24.75c0,.51-.37.88-.88.88h-8.54c-.51,0-.88-.36-.88-.88v-23.94c0-2.85-1.17-4.45-3.29-4.45s-3.5,1.68-3.5,4.6v23.8c0,.51-.36.88-.88.88h-8.54c-.51,0-.88-.36-.88-.88v-35.77c0-.51.36-.88.88-.88h8.54c.51,0,.88.37.88.88v1.46c0,.29.29.29.66-.15,1.9-2.26,4.45-2.77,6.57-2.77,6.71,0,9.85,4.75,9.85,12.48Z"/>
</svg>